<?xml version="1.0" standalone="no"?>
<!DOCTYPE svg PUBLIC "-//W3C//DTD SVG 20010904//EN"
 "http://www.w3.org/TR/2001/REC-SVG-20010904/DTD/svg10.dtd">
<svg version="1.0" xmlns="http://www.w3.org/2000/svg"
 width="500.000000pt" height="500.000000pt" viewBox="0 0 500.000000 500.000000"
 preserveAspectRatio="xMidYMid meet">

<g transform="translate(0.000000,500.000000) scale(0.100000,-0.100000)"
fill="#000000" stroke="none">
<path d="M2420 4135 c-80 -17 -131 -35 -196 -70 -67 -36 -138 -100 -128 -116
4 -7 3 -10 -3 -6 -19 12 -106 -108 -132 -183 -50 -139 -54 -313 -11 -415 55
-129 73 -158 137 -222 89 -90 134 -119 240 -156 151 -52 299 -47 441 15 57 25
162 97 162 111 0 6 3 8 6 4 11 -11 92 96 128 168 46 93 66 176 66 273 0 298
-209 544 -506 596 -104 19 -117 19 -204 1z m235 -50 c28 -7 40 -13 28 -14 -30
-1 -29 -6 11 -41 18 -16 44 -45 57 -64 14 -21 37 -38 59 -45 19 -6 60 -26 90
-45 51 -33 55 -34 58 -15 6 34 25 16 63 -57 45 -89 60 -140 65 -233 l5 -76
-17 45 c-8 25 -24 53 -33 63 -17 17 -19 16 -46 -23 -16 -23 -40 -51 -54 -63
-25 -21 -26 -27 -27 -135 -2 -110 -1 -112 22 -118 45 -11 72 4 98 54 14 26 25
43 26 37 1 -32 -73 -148 -135 -211 -70 -71 -125 -105 -230 -145 -79 -29 -255
-29 -339 1 -106 38 -185 86 -232 140 -12 14 -34 39 -48 55 -37 42 -83 142
-101 217 -29 124 -14 250 45 373 34 71 79 129 80 103 0 -30 18 -29 72 1 29 16
72 35 94 41 27 8 47 22 55 37 8 14 33 42 56 63 37 32 41 39 26 45 -55 23 167
32 252 10z m415 -692 c-11 -17 -11 -17 -6 0 3 10 6 24 7 30 0 9 2 9 5 0 3 -7
0 -20 -6 -30z"/>
<path d="M2407 3803 c-3 -10 -16 -47 -30 -83 -13 -36 -27 -81 -31 -101 -7 -39
-12 -34 136 -142 55 -41 58 -40 186 52 63 46 64 46 58 86 -4 22 -18 74 -33
117 -30 89 -28 88 -183 88 -84 0 -98 -2 -103 -17z"/>
<path d="M2013 3613 c-32 -45 -46 -99 -38 -151 10 -64 54 -171 76 -182 21 -12
70 -13 84 -2 6 4 11 53 10 117 l0 111 -50 59 c-27 33 -52 64 -56 68 -4 5 -15
-4 -26 -20z"/>
<path d="M2425 3184 c-44 -18 -84 -35 -90 -37 -11 -4 39 -110 62 -128 9 -8 52
-13 124 -13 102 0 111 2 135 25 14 13 37 45 50 72 21 40 22 47 8 47 -9 0 -52
16 -97 35 -44 19 -88 34 -96 34 -9 -1 -52 -17 -96 -35z"/>
<path d="M3164 3737 c8 -49 11 -51 90 -67 33 -7 104 -23 156 -35 91 -22 247
-58 395 -92 131 -30 120 -20 117 -104 -2 -67 -44 -525 -57 -624 -5 -38 -4 -41
27 -53 40 -15 48 -5 48 63 0 28 4 86 10 130 5 44 14 130 20 190 5 61 16 180
25 265 8 85 15 158 15 161 0 6 -95 31 -370 95 -58 14 -143 34 -190 46 -99 23
-199 46 -254 58 l-38 8 6 -41z"/>
<path d="M1790 3753 c-36 -8 -139 -33 -230 -54 -91 -22 -185 -44 -210 -50 -25
-6 -106 -25 -180 -44 -127 -31 -135 -34 -134 -56 1 -31 21 -257 34 -374 5 -49
14 -142 20 -205 19 -200 21 -213 33 -201 6 6 20 11 30 11 18 0 19 5 14 68 -22
223 -56 560 -63 618 l-7 52 34 7 c43 9 179 40 289 66 47 11 114 27 150 35 36
8 81 19 100 24 19 5 69 17 110 26 82 18 94 26 104 67 8 32 3 33 -94 10z"/>
<path d="M1219 2716 c-2 -2 -2 -89 1 -193 5 -181 6 -191 30 -226 67 -97 226
-111 309 -28 51 51 61 98 61 290 l0 161 -55 0 -55 0 0 -176 0 -176 -29 -29
c-48 -47 -116 -38 -146 21 -12 22 -15 66 -15 195 l0 165 -48 0 c-27 0 -51 -2
-53 -4z"/>
<path d="M1660 2470 l0 -250 145 0 145 0 0 45 0 45 -90 0 -90 0 0 205 0 205
-55 0 -55 0 0 -250z"/>
<path d="M1940 2675 l0 -45 49 0 c49 0 49 0 56 -37 3 -21 5 -112 3 -203 l-3
-165 53 -3 52 -3 0 205 0 206 55 0 55 0 0 45 0 45 -160 0 -160 0 0 -45z"/>
<path d="M2290 2470 l0 -250 50 0 50 0 0 250 0 250 -50 0 -50 0 0 -250z"/>
<path d="M2610 2707 c-47 -21 -110 -79 -133 -120 -30 -58 -30 -174 0 -232 28
-52 78 -100 128 -121 51 -22 139 -22 189 0 36 15 41 15 48 1 6 -9 23 -15 48
-15 l40 0 0 120 0 120 -115 0 -115 0 0 -45 0 -45 57 0 57 0 -21 -22 c-29 -29
-117 -37 -160 -14 -69 35 -94 136 -53 216 25 49 64 70 129 70 38 0 56 -6 79
-25 17 -14 36 -25 43 -25 21 0 79 23 79 32 0 18 -64 78 -105 97 -50 23 -152
28 -195 8z"/>
<path d="M3125 2699 c-92 -45 -145 -129 -145 -228 0 -129 76 -223 201 -251
102 -23 207 28 265 126 21 36 27 59 28 112 2 109 -45 191 -136 236 -66 33
-153 35 -213 5z m159 -93 c47 -20 86 -80 86 -133 0 -88 -50 -144 -134 -150
-64 -5 -107 19 -136 76 -24 48 -25 79 -5 127 33 80 111 113 189 80z"/>
<path d="M3675 2699 c-130 -65 -182 -212 -120 -344 75 -157 291 -188 406 -58
45 52 62 99 62 173 1 102 -55 189 -147 231 -56 25 -149 24 -201 -2z m159 -93
c48 -20 86 -80 86 -134 0 -85 -52 -143 -132 -149 -66 -5 -108 19 -138 76 -24
48 -25 79 -5 127 33 80 111 113 189 80z"/>
<path d="M3837 2503 c-4 -3 -7 -27 -7 -52 1 -43 2 -45 15 -27 16 22 19 54 7
74 -5 7 -11 9 -15 5z"/>
<path d="M4072 2473 l3 -248 143 -3 142 -3 0 46 0 45 -90 0 -90 0 0 205 0 205
-55 0 -55 0 2 -247z"/>
<path d="M690 2468 l0 -248 50 0 50 0 0 95 c0 52 3 95 8 95 4 -1 33 -34 65
-75 32 -41 62 -75 65 -75 4 0 34 34 66 75 32 41 63 75 67 75 5 0 9 -43 9 -95
l0 -95 50 0 50 0 0 248 -1 247 -25 -30 c-37 -43 -50 -59 -132 -163 -41 -50
-77 -92 -82 -92 -4 0 -28 24 -51 53 -24 28 -46 54 -49 57 -3 3 -28 34 -55 69
-28 35 -58 73 -67 85 -17 20 -18 10 -18 -226z"/>
<path d="M1197 2161 c-24 -14 -27 -21 -25 -61 l3 -45 -112 -9 -113 -9 0 -169
0 -168 -195 0 c-107 0 -195 -2 -195 -4 0 -2 20 -49 44 -103 24 -54 72 -162
106 -240 l63 -143 259 0 259 0 -24 33 c-32 42 -70 117 -60 118 5 0 16 2 25 4
10 2 21 -1 24 -7 4 -7 9 -6 14 2 6 10 61 -54 147 -172 108 -150 370 -386 563
-508 133 -85 303 -174 428 -225 l114 -46 71 27 c185 70 447 215 616 342 102
77 266 227 326 298 27 32 52 61 56 64 3 3 39 50 79 105 76 104 110 143 110
126 0 -6 7 -8 15 -5 8 4 15 1 15 -6 0 -6 5 -8 10 -5 24 15 -5 -51 -52 -118
l-20 -27 242 2 242 3 49 115 c27 63 61 139 74 168 14 29 25 54 25 57 0 2 14
33 30 68 16 36 30 68 30 71 0 3 -87 7 -192 8 l-193 3 -3 167 -2 166 -78 7
c-42 3 -84 7 -92 8 -11 2 -13 15 -11 56 3 52 2 54 -21 48 -13 -4 -28 -7 -35
-7 -6 0 -14 -22 -18 -50 l-7 -50 -496 0 c-274 0 -594 -3 -712 -5 -118 -3 -467
-2 -775 2 l-560 8 -7 59 c-4 32 -9 60 -10 61 -2 1 -15 -5 -31 -14z m1000 -291
c17 -10 37 -28 42 -39 16 -30 -22 -38 -65 -15 -32 18 -35 18 -51 1 -17 -17
-17 -19 6 -38 13 -10 31 -19 41 -19 9 0 29 -11 44 -25 33 -31 34 -74 3 -111
-20 -23 -32 -27 -71 -27 -37 0 -52 5 -76 28 -36 35 -37 43 -5 51 16 4 30 0 40
-10 21 -20 49 -21 65 -1 17 20 0 41 -41 49 -88 17 -106 127 -26 161 43 19 56
18 94 -5z m-857 -15 c0 -23 -3 -24 -72 -27 l-73 -3 0 -30 c0 -29 2 -30 53 -33
47 -3 52 -5 52 -27 0 -22 -5 -24 -52 -27 -49 -3 -53 -5 -53 -28 0 -24 3 -25
73 -28 69 -3 72 -4 72 -28 l0 -25 -102 3 -103 3 -3 124 c-1 69 0 131 2 138 4
9 32 13 106 13 100 0 100 0 100 -25z m228 -87 l3 -107 47 -3 c43 -3 47 -5 50
-30 l3 -28 -85 0 -86 0 0 133 c0 74 3 137 7 141 4 4 19 6 33 4 25 -3 25 -4 28
-110z m1282 19 c0 -79 3 -96 20 -114 20 -22 57 -21 72 1 4 6 8 55 8 109 l0 98
33 -3 32 -3 3 -80 c6 -139 -27 -195 -115 -195 -91 0 -113 35 -113 180 l0 100
30 0 30 0 0 -93z m549 66 c14 -11 27 -27 29 -36 5 -23 -34 -31 -60 -13 -33 23
-75 20 -103 -9 -51 -50 -17 -135 55 -135 20 0 43 6 49 14 12 14 60 9 61 -7 3
-32 -55 -67 -110 -67 -56 0 -101 26 -123 73 -50 105 20 214 132 203 24 -2 55
-13 70 -23z m419 0 c4 -25 -5 -27 -95 -23 -43 2 -43 1 -43 -34 l0 -36 50 0
c47 0 50 -2 50 -25 0 -23 -3 -25 -50 -25 -49 0 -50 -1 -50 -30 l0 -30 70 0
c68 0 70 -1 70 -25 l0 -25 -105 0 -105 0 0 133 c0 74 3 137 7 141 4 4 50 5
103 4 90 -3 95 -4 98 -25z m-1279 -5 c5 -13 29 -65 54 -116 65 -130 65 -132
28 -132 -21 0 -31 5 -31 15 0 22 -128 21 -144 -1 -7 -9 -22 -14 -37 -12 l-25
3 63 133 c35 72 68 132 73 132 6 0 14 -10 19 -22z m-19 -489 c0 -38 4 -58 10
-54 6 3 13 -1 16 -10 4 -10 9 -12 13 -7 4 7 50 6 136 -3 72 -7 200 -16 285
-20 85 -3 171 -9 190 -12 19 -4 46 -7 60 -8 80 -4 85 -5 70 -15 -8 -5 -27 -10
-42 -10 -16 0 -28 -4 -28 -10 0 -5 5 -10 10 -10 6 0 10 -4 10 -10 0 -5 -8 -10
-19 -10 -23 0 -62 -20 -85 -43 -22 -22 -37 -22 -29 1 6 15 5 15 -10 4 -14 -12
-19 -12 -32 2 -19 19 -39 21 -30 4 4 -7 -1 -4 -9 6 -14 17 -16 18 -16 3 0 -19
-15 -23 -26 -5 -5 7 -3 8 7 3 8 -5 1 4 -14 20 -26 27 -58 42 -56 27 3 -18 -2
-32 -17 -46 -12 -12 -20 -14 -36 -5 -26 14 -49 -4 -30 -23 17 -17 15 -28 -5
-21 -10 3 -15 2 -10 -2 4 -5 17 -9 29 -10 16 -1 22 -8 22 -27 1 -15 -2 -24 -6
-22 -4 3 -8 -2 -8 -11 0 -9 4 -13 10 -10 6 3 7 -1 4 -9 -8 -22 -84 -22 -84 -1
0 8 8 14 18 12 24 -3 27 17 3 21 -15 2 -22 -4 -27 -22 -3 -14 -11 -26 -17 -26
-6 0 -3 -6 8 -13 20 -16 14 -22 -32 -32 -23 -4 -33 -3 -33 5 0 7 -6 10 -14 7
-16 -6 -30 19 -16 28 6 4 10 11 10 18 0 6 -7 2 -15 -9 -9 -12 -12 -31 -9 -51
3 -17 1 -40 -5 -50 -8 -13 -11 -14 -10 -3 3 20 -11 72 -24 87 -7 9 5 27 42 64
52 53 56 69 18 69 -18 0 -19 2 -7 11 11 8 8 9 -15 5 -59 -11 -87 5 -119 69
-22 44 -32 55 -38 45 -5 -8 -22 -38 -38 -66 -27 -48 -32 -52 -77 -58 -91 -13
-91 -13 -38 -66 l47 -48 -7 -66 c-4 -36 -5 -66 -1 -66 3 0 30 12 61 27 34 17
58 23 63 18 5 -6 5 -61 1 -124 -9 -123 -7 -246 3 -257 12 -11 242 91 371 164
74 43 277 182 310 213 9 8 51 46 94 84 43 39 103 98 133 133 30 34 77 86 104
115 26 29 60 67 73 85 40 51 38 30 -2 -35 -124 -193 -397 -447 -636 -591 -175
-104 -396 -203 -459 -205 -60 -2 -265 85 -430 181 -139 82 -283 190 -418 316
-56 52 -198 219 -236 275 -19 30 -38 67 -41 83 -4 15 -10 26 -14 24 -4 -3 -8
4 -8 15 -2 19 11 19 573 19 l574 0 0 -61z m590 -249 c13 -8 13 -10 -2 -10 -9
0 -20 5 -23 10 -8 13 5 13 25 0z m-48 -17 c-6 -2 -9 -10 -6 -15 4 -7 2 -8 -5
-4 -13 9 -5 26 12 25 9 0 8 -2 -1 -6z m-27 -23 c3 -5 1 -10 -4 -10 -6 0 -11 5
-11 10 0 6 2 10 4 10 3 0 8 -4 11 -10z m-78 -57 c-14 -14 -19 -15 -29 -4 -11
10 -10 11 3 6 10 -4 20 -2 24 4 3 6 9 11 13 11 3 0 -1 -8 -11 -17z m38 -3 c3
-5 1 -10 -4 -10 -6 0 -11 5 -11 10 0 6 2 10 4 10 3 0 8 -4 11 -10z m-279 -99
c0 -11 -4 -17 -8 -15 -4 3 -8 12 -8 20 0 8 4 14 8 14 4 0 8 -9 8 -19z m-151
-21 c3 -5 1 -10 -4 -10 -6 0 -11 5 -11 10 0 6 2 10 4 10 3 0 8 -4 11 -10z m40
-10 c3 -6 -1 -7 -9 -4 -18 7 -21 14 -7 14 6 0 13 -4 16 -10z m-24 -17 c-11 -5
-11 -7 0 -15 12 -8 12 -9 0 -6 -22 6 -25 28 -4 27 12 0 14 -2 4 -6z"/>
<path d="M2502 1725 c-18 -38 -15 -45 18 -45 17 0 30 4 30 10 0 15 -23 60 -30
60 -4 0 -12 -11 -18 -25z"/>
<path d="M2067 1174 c-11 -22 -26 -33 -47 -38 l-32 -6 21 -26 c16 -21 20 -35
15 -61 l-7 -35 31 16 c21 11 38 13 54 7 35 -13 42 -9 39 24 -1 21 5 37 18 49
25 23 19 36 -18 36 -21 0 -31 7 -43 32 l-15 33 -16 -31z"/>
<path d="M2695 1050 c-3 -5 -1 -10 4 -10 6 0 11 5 11 10 0 6 -2 10 -4 10 -3 0
-8 -4 -11 -10z"/>
<path d="M2735 1009 c-4 -6 -4 -13 -1 -16 3 -4 6 -1 6 6 0 7 5 9 12 5 7 -4 8
-3 4 4 -9 15 -13 15 -21 1z"/>
<path d="M2711 994 c0 -11 3 -14 6 -6 3 7 2 16 -1 19 -3 4 -6 -2 -5 -13z"/>
</g>
</svg>
